<svg width="24" height="24" viewBox="0 0 24 24" fill="none" xmlns="http://www.w3.org/2000/svg">
<path d="M17.9538 5.61194C17.3073 5.05176 16.4725 4.75725 15.6176 4.78767C14.7626 4.8181 13.9509 5.17121 13.3458 5.77594L6.55982 12.5599C6.42249 12.7073 6.25689 12.8255 6.0729 12.9075C5.8889 12.9895 5.69027 13.0336 5.48886 13.0371C5.28746 13.0407 5.0874 13.0036 4.90062 12.9282C4.71385 12.8527 4.54418 12.7405 4.40174 12.598C4.2593 12.4556 4.14702 12.2859 4.07157 12.0991C3.99613 11.9124 3.95908 11.7123 3.96264 11.5109C3.96619 11.3095 4.01027 11.1109 4.09226 10.9269C4.17424 10.7429 4.29245 10.5773 4.43982 10.4399L11.2238 3.65594C11.8199 3.05189 12.5303 2.57273 13.3137 2.24648C14.0971 1.92024 14.9377 1.75345 15.7863 1.75589C16.6349 1.75832 17.4745 1.92991 18.2561 2.26064C19.0376 2.59137 19.7453 3.07459 20.3379 3.68205C20.9304 4.28951 21.396 5.00901 21.7072 5.79849C22.0184 6.58797 22.1691 7.43158 22.1505 8.27999C22.1319 9.12839 21.9443 9.96458 21.5987 10.7396C21.2531 11.5147 20.7565 12.2131 20.1378 12.7939L10.6918 21.7859C9.96168 22.4983 8.97845 22.8915 7.95844 22.8789C6.93843 22.8663 5.96519 22.4491 5.25282 21.7189C4.54045 20.9888 4.1473 20.0056 4.15986 18.9856C4.17243 17.9656 4.58968 16.9923 5.31982 16.2799L13.8058 7.79194C13.9443 7.64874 14.1098 7.53455 14.2929 7.45602C14.4759 7.3775 14.6728 7.33621 14.8719 7.33457C15.0711 7.33294 15.2686 7.37098 15.4529 7.44649C15.6372 7.522 15.8046 7.63346 15.9454 7.77436C16.0862 7.91527 16.1975 8.0828 16.2728 8.26718C16.3482 8.45156 16.386 8.64909 16.3842 8.84826C16.3824 9.04743 16.3409 9.24424 16.2622 9.42721C16.1835 9.61017 16.0691 9.77564 15.9258 9.91394L7.44582 18.4019C7.29746 18.5609 7.21603 18.771 7.21843 18.9884C7.22083 19.2059 7.30687 19.4141 7.4587 19.5697C7.61053 19.7254 7.81649 19.8167 8.03381 19.8245C8.25114 19.8324 8.46314 19.7563 8.62582 19.6119L18.0698 10.6199C18.4115 10.2948 18.6814 9.90174 18.8623 9.4661C19.0431 9.03047 19.1309 8.56183 19.12 8.09027C19.1091 7.61871 18.9997 7.15465 18.7988 6.72785C18.598 6.30105 18.3102 5.92095 17.9538 5.61194V5.61194Z" fill="currentColor"/>
</svg>
