<svg width="24" height="24" viewBox="0 0 24 24" fill="none" xmlns="http://www.w3.org/2000/svg">
	<path
		d="M11.75 3.25C12.5788 3.25 13.3737 3.57924 13.9597 4.16529C14.5458 4.75134 14.875 5.5462 14.875 6.375V7H8.625V6.375C8.625 5.5462 8.95424 4.75134 9.54029 4.16529C10.1263 3.57924 10.9212 3.25 11.75 3.25V3.25ZM16.125 7V6.375C16.125 5.21468 15.6641 4.10188 14.8436 3.28141C14.0231 2.46094 12.9103 2 11.75 2C10.5897 2 9.47688 2.46094 8.65641 3.28141C7.83594 4.10188 7.375 5.21468 7.375 6.375V7H3V19.5C3 20.163 3.26339 20.7989 3.73223 21.2678C4.20107 21.7366 4.83696 22 5.5 22H18C18.663 22 19.2989 21.7366 19.7678 21.2678C20.2366 20.7989 20.5 20.163 20.5 19.5V7H16.125Z"
		fill="currentColor"/>
</svg>
