<svg width="38" height="38" viewBox="0 0 38 38" fill="none" xmlns="http://www.w3.org/2000/svg">
<path opacity="0.4" d="M26.3156 34.8335H11.6847C7.42478 34.8335 3.9585 31.3993 3.9585 27.1774V18.7396C3.9585 14.5177 7.42478 11.0835 11.6847 11.0835H26.3156C30.5755 11.0835 34.0418 14.5177 34.0418 18.7396V27.1774C34.0418 31.3993 30.5755 34.8335 26.3156 34.8335Z" fill="currentColor"/>
<path d="M24.9456 15.8334C24.2946 15.8334 23.7662 15.321 23.7662 14.6895V10.0652C23.7662 7.52268 21.6339 5.45453 19.0142 5.45453C17.808 5.45453 16.5422 5.92428 15.6411 6.78906C14.7385 7.65689 14.2385 8.81146 14.2338 10.0438V14.6895C14.2338 15.321 13.7054 15.8334 13.0544 15.8334C12.4034 15.8334 11.875 15.321 11.875 14.6895V10.0652C11.8829 8.19071 12.6314 6.46115 13.9806 5.16627C15.3282 3.86833 17.0705 3.21708 19.0189 3.16675C22.9344 3.16675 26.125 6.26135 26.125 10.0652V14.6895C26.125 15.321 25.5966 15.8334 24.9456 15.8334Z" fill="currentColor"/>
</svg>
