<svg width="24" height="24" viewBox="0 0 24 24" fill="none" xmlns="http://www.w3.org/2000/svg">
  <path
    d="M2 6.5C2 5.83696 2.26339 5.20107 2.73223 4.73223C3.20107 4.26339 3.83696 4 4.5 4H19.5C20.163 4 20.7989 4.26339 21.2678 4.73223C21.7366 5.20107 22 5.83696 22 6.5V7.75H2V6.5ZM2 10.25V16.5C2 17.163 2.26339 17.7989 2.73223 18.2678C3.20107 18.7366 3.83696 19 4.5 19H19.5C20.163 19 20.7989 18.7366 21.2678 18.2678C21.7366 17.7989 22 17.163 22 16.5V10.25H2ZM5.75 12.75H7C7.33152 12.75 7.64946 12.8817 7.88388 13.1161C8.1183 13.3505 8.25 13.6685 8.25 14V15.25C8.25 15.5815 8.1183 15.8995 7.88388 16.1339C7.64946 16.3683 7.33152 16.5 7 16.5H5.75C5.41848 16.5 5.10054 16.3683 4.86612 16.1339C4.6317 15.8995 4.5 15.5815 4.5 15.25V14C4.5 13.6685 4.6317 13.3505 4.86612 13.1161C5.10054 12.8817 5.41848 12.75 5.75 12.75Z"
    fill="currentColor"/>
</svg>
