<svg width="24" height="24" viewBox="0 0 24 24" fill="none" xmlns="http://www.w3.org/2000/svg">
	<path
		d="M21.2143 9.10714C20.7123 7.91899 19.9846 6.83952 19.0714 5.92857C18.1605 5.01542 17.081 4.28769 15.8929 3.78571C14.6585 3.26339 13.3504 3 12 3C10.6496 3 9.34152 3.26339 8.10714 3.78571C6.91899 4.28769 5.83952 5.01542 4.92857 5.92857C4.01542 6.83952 3.28769 7.91899 2.78571 9.10714C2.26339 10.3415 2 11.6496 2 13C2 15.9621 3.30134 18.7522 5.5692 20.6585L5.60714 20.6897C5.73661 20.7969 5.89955 20.8571 6.06696 20.8571H17.9353C18.1027 20.8571 18.2656 20.7969 18.3951 20.6897L18.433 20.6585C20.6987 18.7522 22 15.9621 22 13C22 11.6496 21.7344 10.3415 21.2143 9.10714ZM11.3304 5.67857C11.3304 5.58036 11.4107 5.5 11.5089 5.5H12.4911C12.5893 5.5 12.6696 5.58036 12.6696 5.67857V7.46429C12.6696 7.5625 12.5893 7.64286 12.4911 7.64286H11.5089C11.4107 7.64286 11.3304 7.5625 11.3304 7.46429V5.67857ZM6.59821 13.4911C6.59821 13.5893 6.51786 13.6696 6.41964 13.6696H4.63393C4.53571 13.6696 4.45536 13.5893 4.45536 13.4911V12.5089C4.45536 12.4107 4.53571 12.3304 4.63393 12.3304H6.41964C6.51786 12.3304 6.59821 12.4107 6.59821 12.5089V13.4911ZM8.62277 8.92634L7.92857 9.62054C7.89501 9.65377 7.84969 9.67241 7.80246 9.67241C7.75522 9.67241 7.7099 9.65377 7.67634 9.62054L6.41295 8.35714C6.37971 8.32358 6.36107 8.27826 6.36107 8.23103C6.36107 8.1838 6.37971 8.13847 6.41295 8.10491L7.10714 7.41071C7.17634 7.34152 7.29018 7.34152 7.35938 7.41071L8.62277 8.67411C8.69196 8.7433 8.69196 8.85714 8.62277 8.92634V8.92634ZM15.1205 10.7924L13.2344 12.6786C13.346 13.096 13.2388 13.558 12.9107 13.8862C12.7947 14.0024 12.6569 14.0946 12.5053 14.1575C12.3536 14.2204 12.191 14.2528 12.0268 14.2528C11.8626 14.2528 11.7 14.2204 11.5483 14.1575C11.3966 14.0946 11.2589 14.0024 11.1429 13.8862C11.0266 13.7702 10.9344 13.6324 10.8715 13.4807C10.8086 13.329 10.7762 13.1664 10.7762 13.0022C10.7762 12.838 10.8086 12.6754 10.8715 12.5238C10.9344 12.3721 11.0266 12.2343 11.1429 12.1183C11.2978 11.9628 11.4911 11.8511 11.7032 11.7942C11.9152 11.7374 12.1385 11.7375 12.3504 11.7946L14.2366 9.90848C14.3058 9.83929 14.4196 9.83929 14.4888 9.90848L15.1205 10.5402C15.1897 10.6094 15.1897 10.721 15.1205 10.7924V10.7924ZM16.0804 9.62277L15.3862 8.92857C15.3529 8.89501 15.3343 8.84969 15.3343 8.80246C15.3343 8.75522 15.3529 8.7099 15.3862 8.67634L16.6496 7.41295C16.7188 7.34375 16.8326 7.34375 16.9018 7.41295L17.596 8.10714C17.6652 8.17634 17.6652 8.29018 17.596 8.35938L16.3326 9.62277C16.299 9.656 16.2537 9.67464 16.2065 9.67464C16.1592 9.67464 16.1139 9.656 16.0804 9.62277V9.62277ZM19.4554 13.4911C19.4554 13.5893 19.375 13.6696 19.2768 13.6696H17.4911C17.3929 13.6696 17.3125 13.5893 17.3125 13.4911V12.5089C17.3125 12.4107 17.3929 12.3304 17.4911 12.3304H19.2768C19.375 12.3304 19.4554 12.4107 19.4554 12.5089V13.4911Z"
		fill="currentColor"/>
</svg>
