<svg width="84" height="84" viewBox="0 0 84 84" fill="none" xmlns="http://www.w3.org/2000/svg">
<path d="M68.559 77.5664H14.2061V83.7429H68.559V77.5664Z" fill="currentColor"/>
<path d="M51.1616 27.8457H32.1176C30.4119 27.8457 29.0293 29.2283 29.0293 30.934C29.0293 32.6398 30.4119 34.0223 32.1176 34.0223H51.1616C52.8674 34.0223 54.25 32.6398 54.25 30.934C54.25 29.2283 52.8674 27.8457 51.1616 27.8457Z" fill="currentColor"/>
<path d="M65.5734 42.2573H32.1176C30.4119 42.2573 29.0293 43.6399 29.0293 45.3456C29.0293 47.0514 30.4119 48.4339 32.1176 48.4339H65.5736C67.2793 48.4339 68.6617 47.0514 68.6617 45.3456C68.6617 43.6399 67.2791 42.2573 65.5734 42.2573Z" fill="currentColor"/>
<path d="M82.1801 0.633438C81.0713 0.13518 79.7754 0.331891 78.8653 1.1358L70.2173 8.78636L61.5589 1.04409C60.3863 -0.00492972 58.6138 -0.00492972 57.4412 1.04409L48.7942 8.77701L40.1461 1.04409C38.9735 -0.00492972 37.202 -0.00492972 36.0294 1.04409L27.371 8.78636L18.723 1.1358C17.8141 0.332875 16.517 0.136164 15.4083 0.633438C14.3007 1.13268 13.5883 2.2342 13.5883 3.44891V58.4195H3.08831C1.38255 58.4194 0 59.8019 0 61.5077V69.0224C0 77.1392 6.60368 83.7429 14.7205 83.7429V77.5664C10.009 77.5664 6.17646 73.733 6.17646 69.0224V64.596H54.5588V69.0224C54.5588 77.1392 61.1625 83.7431 69.2793 83.7431C77.3962 83.7431 83.9998 77.1394 83.9998 69.0226V3.44875C84 2.23403 83.2876 1.13268 82.1801 0.633438ZM77.8235 69.0224C77.8235 73.733 73.9901 77.5664 69.2795 77.5664C64.5689 77.5664 60.7354 73.733 60.7354 69.0224V61.5077C60.7354 59.8019 59.3529 58.4194 57.6471 58.4194H19.7648V10.3036L25.337 15.2335C26.5105 16.2712 28.2749 16.266 29.4412 15.2222L38.0883 7.48928L46.7353 15.2212C47.9079 16.2702 49.6804 16.2702 50.853 15.2212L59.501 7.4883L68.1481 15.2212C69.3154 16.265 71.0799 16.2691 72.2523 15.2325L77.8235 10.3038V69.0224Z" fill="currentColor"/>
</svg>
