<svg width="24" height="24" viewBox="0 0 24 24" fill="none" xmlns="http://www.w3.org/2000/svg">
<path d="M11.9973 6.86894C9.15795 6.86894 6.86644 9.16045 6.86644 11.9998C6.86644 14.8392 9.15795 17.1307 11.9973 17.1307C14.8367 17.1307 17.1282 14.8392 17.1282 11.9998C17.1282 9.16045 14.8367 6.86894 11.9973 6.86894ZM11.9973 15.3345C10.1611 15.3345 8.66262 13.836 8.66262 11.9998C8.66262 10.1636 10.1611 8.66512 11.9973 8.66512C13.8335 8.66512 15.332 10.1636 15.332 11.9998C15.332 13.836 13.8335 15.3345 11.9973 15.3345ZM17.3383 5.46302C16.6754 5.46302 16.14 5.99837 16.14 6.66131C16.14 7.32424 16.6754 7.85959 17.3383 7.85959C18.0013 7.85959 18.5366 7.32674 18.5366 6.66131C18.5368 6.50389 18.5059 6.34798 18.4458 6.20251C18.3856 6.05704 18.2974 5.92486 18.1861 5.81355C18.0748 5.70224 17.9426 5.61398 17.7971 5.55383C17.6516 5.49368 17.4957 5.46282 17.3383 5.46302V5.46302ZM21.9989 11.9998C21.9989 10.6189 22.0114 9.25051 21.9338 7.8721C21.8563 6.27105 21.4911 4.85012 20.3203 3.67935C19.147 2.50608 17.7286 2.14334 16.1275 2.06579C14.7466 1.98824 13.3782 2.00074 11.9998 2.00074C10.6189 2.00074 9.25051 1.98824 7.8721 2.06579C6.27105 2.14334 4.85012 2.50858 3.67935 3.67935C2.50608 4.85262 2.14334 6.27105 2.06579 7.8721C1.98824 9.25301 2.00074 10.6214 2.00074 11.9998C2.00074 13.3782 1.98824 14.7491 2.06579 16.1275C2.14334 17.7286 2.50858 19.1495 3.67935 20.3203C4.85262 21.4936 6.27105 21.8563 7.8721 21.9338C9.25301 22.0114 10.6214 21.9989 11.9998 21.9989C13.3807 21.9989 14.7491 22.0114 16.1275 21.9338C17.7286 21.8563 19.1495 21.4911 20.3203 20.3203C21.4936 19.147 21.8563 17.7286 21.9338 16.1275C22.0139 14.7491 21.9989 13.3807 21.9989 11.9998V11.9998ZM19.7974 17.8987C19.6148 18.354 19.3947 18.6942 19.0419 19.0444C18.6892 19.3972 18.3515 19.6173 17.8962 19.7999C16.5803 20.3228 13.4558 20.2052 11.9973 20.2052C10.5389 20.2052 7.4118 20.3228 6.09593 19.8024C5.64064 19.6198 5.30041 19.3997 4.95018 19.0469C4.59745 18.6942 4.37731 18.3565 4.19469 17.9012C3.67434 16.5828 3.79192 13.4583 3.79192 11.9998C3.79192 10.5414 3.67434 7.4143 4.19469 6.09844C4.37731 5.64314 4.59745 5.30291 4.95018 4.95268C5.30291 4.60245 5.64064 4.37981 6.09593 4.19719C7.4118 3.67685 10.5389 3.79442 11.9973 3.79442C13.4558 3.79442 16.5828 3.67685 17.8987 4.19719C18.354 4.37981 18.6942 4.59995 19.0444 4.95268C19.3972 5.30542 19.6173 5.64314 19.7999 6.09844C20.3203 7.4143 20.2027 10.5414 20.2027 11.9998C20.2027 13.4583 20.3203 16.5828 19.7974 17.8987Z" fill="currentColor"/>
</svg>
