<svg width="24" height="24" viewBox="0 0 24 24" fill="none" xmlns="http://www.w3.org/2000/svg">
	<path fill-rule="evenodd" clip-rule="evenodd"
		  d="M16.9938 16.0238C16.6512 15.6812 16.6512 15.1258 16.9938 14.7833L19.0051 12.772H8.84211C8.35763 12.772 7.96491 12.3792 7.96491 11.8948C7.96491 11.4103 8.35763 11.0176 8.84211 11.0176L19.0051 11.0176L16.9938 9.00625C16.6512 8.66371 16.6512 8.10827 16.9938 7.76572C17.3363 7.42318 17.8918 7.42318 18.2343 7.76572L21.7427 11.2741L21.7449 11.2763C21.8281 11.36 21.8909 11.4562 21.9334 11.559C21.9763 11.6624 22 11.7758 22 11.8948C22 12.0137 21.9763 12.1271 21.9334 12.2305C21.8909 12.3333 21.8281 12.4295 21.7449 12.5132L21.7431 12.515L18.2343 16.0238C17.8918 16.3664 17.3363 16.3664 16.9938 16.0238Z"
		  fill="currentColor"/>
	<path fill-rule="evenodd" clip-rule="evenodd"
		  d="M5.50877 5.75439C5.04348 5.75439 4.59725 5.93922 4.26824 6.26824C3.93922 6.59725 3.75439 7.04348 3.75439 7.50877V16.2807C3.75439 16.746 3.93922 17.1922 4.26824 17.5212C4.59725 17.8503 5.04348 18.0351 5.50877 18.0351H11.6491C12.1144 18.0351 12.5606 17.8503 12.8896 17.5212C13.2187 17.1922 13.4035 16.746 13.4035 16.2807V15.4035C13.4035 14.919 13.7962 14.5263 14.2807 14.5263C14.7652 14.5263 15.1579 14.919 15.1579 15.4035V16.2807C15.1579 17.2113 14.7882 18.1038 14.1302 18.7618C13.4722 19.4198 12.5797 19.7895 11.6491 19.7895H5.50877C4.57818 19.7895 3.68572 19.4198 3.02769 18.7618C2.36968 18.1038 2 17.2113 2 16.2807V7.50877C2 6.57818 2.36968 5.68572 3.02769 5.02769C3.68572 4.36968 4.57818 4 5.50877 4H11.6491C12.5797 4 13.4722 4.36968 14.1302 5.02769C14.7882 5.68572 15.1579 6.57818 15.1579 7.50877V8.38596C15.1579 8.87042 14.7652 9.26316 14.2807 9.26316C13.7962 9.26316 13.4035 8.87042 13.4035 8.38596V7.50877C13.4035 7.04348 13.2187 6.59725 12.8896 6.26824C12.5606 5.93922 12.1144 5.75439 11.6491 5.75439H5.50877Z"
		  fill="currentColor"/>
</svg>
