<svg width="24" height="24" viewBox="0 0 24 24" fill="none" xmlns="http://www.w3.org/2000/svg">
	<path fill-rule="evenodd" clip-rule="evenodd"
		  d="M6 5C5.46957 5 4.96086 5.21071 4.58579 5.58579C4.21071 5.96086 4 6.46957 4 7V17C4 17.5304 4.21071 18.0391 4.58579 18.4142C4.96086 18.7893 5.46957 19 6 19H13C13.5304 19 14.0391 18.7893 14.4142 18.4142C14.7893 18.0391 15 17.5304 15 17V16C15 15.4477 15.4477 15 16 15C16.5523 15 17 15.4477 17 16V17C17 18.0609 16.5786 19.0783 15.8284 19.8284C15.0783 20.5786 14.0609 21 13 21H6C4.93913 21 3.92172 20.5786 3.17157 19.8284C2.42143 19.0783 2 18.0609 2 17V7C2 5.93913 2.42143 4.92172 3.17157 4.17157C3.92172 3.42143 4.93913 3 6 3H13C14.0609 3 15.0783 3.42143 15.8284 4.17157C16.5786 4.92172 17 5.93913 17 7V8C17 8.55228 16.5523 9 16 9C15.4477 9 15 8.55228 15 8V7C15 6.46957 14.7893 5.96086 14.4142 5.58579C14.0391 5.21071 13.5304 5 13 5H6ZM11.7071 7.29289C12.0976 7.68342 12.0976 8.31658 11.7071 8.70711L9.41421 11H21C21.5523 11 22 11.4477 22 12C22 12.5523 21.5523 13 21 13H9.41421L11.7071 15.2929C12.0976 15.6834 12.0976 16.3166 11.7071 16.7071C11.3166 17.0976 10.6834 17.0976 10.2929 16.7071L6.29336 12.7076V12.7076L6.29078 12.705C6.19595 12.6096 6.12432 12.4999 6.07588 12.3828C6.02699 12.2649 6 12.1356 6 12C6 11.8644 6.02699 11.7351 6.07588 11.6172C6.12432 11.5001 6.19595 11.3904 6.29078 11.295L6.29289 11.2929V11.2929L10.2929 7.29289C10.6834 6.90237 11.3166 6.90237 11.7071 7.29289Z"
		  fill="currentColor"/>
</svg>
