<svg width="24" height="24" viewBox="0 0 24 24" fill="none" xmlns="http://www.w3.org/2000/svg">
<path d="M6.4773 22.0007H2.33073V8.64738H6.4773V22.0007ZM4.40151 6.82589C3.07575 6.82589 2 5.72728 2 4.40151C2 3.76459 2.25302 3.15376 2.70339 2.70339C3.15376 2.25302 3.76459 2 4.40151 2C5.03844 2 5.64927 2.25302 6.09964 2.70339C6.55001 3.15376 6.80303 3.76459 6.80303 4.40151C6.80303 5.72728 5.72728 6.82589 4.40151 6.82589ZM21.9964 22.0007H17.8591V15.5005C17.8591 13.9511 17.8277 11.9646 15.7033 11.9646C13.5476 11.9646 13.2168 13.6476 13.2168 15.389V22.0007H9.07454V8.64738H13.0511V10.4689H13.109C13.6626 9.41955 15.0148 8.31237 17.032 8.31237C21.2285 8.31237 22 11.076 22 14.6655V22.0007H21.9964Z" fill="currentColor"/>
</svg>
