<svg width="20" height="20" viewBox="0 0 20 20" fill="none" xmlns="http://www.w3.org/2000/svg">
<path d="M12.7664 10.5901H10.624V12.714C10.624 13.056 10.3443 13.3332 9.99935 13.3332C9.65439 13.3332 9.37475 13.056 9.37475 12.714V10.5901H7.2323C6.91053 10.5571 6.66602 10.2883 6.66602 9.9676C6.66602 9.64692 6.91053 9.37812 7.2323 9.34509H9.36803V7.22788C9.40135 6.9089 9.6725 6.6665 9.99599 6.6665C10.3195 6.6665 10.5906 6.9089 10.624 7.22788V9.34509H12.7664C13.0882 9.37812 13.3327 9.64692 13.3327 9.9676C13.3327 10.2883 13.0882 10.5571 12.7664 10.5901Z" fill="currentColor"/>
</svg>
