<svg width="24" height="24" viewBox="0 0 24 24" fill="none" xmlns="http://www.w3.org/2000/svg">
<path d="M12 6C11.2583 6 10.5333 6.21993 9.91661 6.63199C9.29993 7.04404 8.81928 7.62971 8.53545 8.31494C8.25162 9.00016 8.17736 9.75416 8.32206 10.4816C8.46675 11.209 8.8239 11.8772 9.34835 12.4017C9.8728 12.9261 10.541 13.2833 11.2684 13.4279C11.9958 13.5726 12.7498 13.4984 13.4351 13.2145C14.1203 12.9307 14.706 12.4501 15.118 11.8334C15.5301 11.2167 15.75 10.4917 15.75 9.75C15.75 8.75544 15.3549 7.80161 14.6517 7.09835C13.9484 6.39509 12.9946 6 12 6Z" fill="white"/>
<path d="M12 2C10.0222 2 8.08879 2.58649 6.4443 3.6853C4.79981 4.78412 3.51809 6.3459 2.76121 8.17316C2.00433 10.0004 1.8063 12.0111 2.19215 13.9509C2.578 15.8907 3.53041 17.6725 4.92894 19.0711C6.32746 20.4696 8.10929 21.422 10.0491 21.8078C11.9889 22.1937 13.9996 21.9957 15.8268 21.2388C17.6541 20.4819 19.2159 19.2002 20.3147 17.5557C21.4135 15.9112 22 13.9778 22 12C21.997 9.34876 20.9424 6.80698 19.0677 4.93227C17.193 3.05756 14.6512 2.00302 12 2V2ZM17.7086 18.3757C17.6943 17.4388 17.3126 16.545 16.6457 15.8868C15.9787 15.2287 15.0799 14.8589 14.1429 14.8571H9.85715C8.92013 14.8589 8.02132 15.2287 7.35435 15.8868C6.68739 16.545 6.30567 17.4388 6.29143 18.3757C4.99612 17.2191 4.08267 15.6963 3.67203 14.009C3.26139 12.3218 3.37293 10.5495 3.99189 8.92704C4.61085 7.30455 5.70802 5.90833 7.13813 4.92326C8.56823 3.93819 10.2638 3.41073 12.0004 3.41073C13.7369 3.41073 15.4325 3.93819 16.8626 4.92326C18.2927 5.90833 19.3899 7.30455 20.0088 8.92704C20.6278 10.5495 20.7393 12.3218 20.3287 14.009C19.9181 15.6963 19.0046 17.2191 17.7093 18.3757H17.7086Z" fill="white"/>
</svg>
