<svg width="32" height="32" viewBox="0 0 32 32" fill="none" xmlns="http://www.w3.org/2000/svg">
	<path
		d="M14.6667 22.6667C14.6667 23.4 15.2667 24 16 24C16.7333 24 17.3333 23.4 17.3333 22.6667C17.3333 21.9333 16.7333 21.3333 16 21.3333C15.2667 21.3333 14.6667 21.9333 14.6667 22.6667ZM14.6667 4V9.33333H17.3333V6.77333C21.8533 7.42667 25.3333 11.2933 25.3333 16C25.3333 21.16 21.16 25.3333 16 25.3333C10.84 25.3333 6.66667 21.16 6.66667 16C6.66667 13.76 7.45333 11.7067 8.77333 10.1067L16 17.3333L17.88 15.4533L8.81333 6.38667V6.41333C5.89333 8.6 4 12.0667 4 16C4 22.6267 9.36 28 16 28C22.6267 28 28 22.6267 28 16C28 9.37333 22.6267 4 16 4H14.6667ZM24 16C24 15.2667 23.4 14.6667 22.6667 14.6667C21.9333 14.6667 21.3333 15.2667 21.3333 16C21.3333 16.7333 21.9333 17.3333 22.6667 17.3333C23.4 17.3333 24 16.7333 24 16ZM8 16C8 16.7333 8.6 17.3333 9.33333 17.3333C10.0667 17.3333 10.6667 16.7333 10.6667 16C10.6667 15.2667 10.0667 14.6667 9.33333 14.6667C8.6 14.6667 8 15.2667 8 16Z"
		fill="currentColor"/>
</svg>
