<svg width="24" height="24" viewBox="0 0 24 24" fill="none" xmlns="http://www.w3.org/2000/svg">
	<path
		d="M17.6584 16.6297H18.645C18.7231 16.6297 18.8126 16.6261 18.9136 16.62C19.0145 16.6136 19.1171 16.6037 19.2213 16.5907C19.3287 16.5744 19.4329 16.5549 19.5339 16.5321C19.6381 16.5061 19.7292 16.4751 19.8074 16.4393C19.8888 16.4035 19.9539 16.3628 20.0027 16.3172C20.0516 16.2716 20.076 16.2179 20.076 16.156C20.076 16.0876 20.0483 15.9851 19.9929 15.8483C19.9408 15.7083 19.8724 15.5488 19.7878 15.3697C19.7031 15.1873 19.6103 14.9936 19.5094 14.7885C19.4084 14.5833 19.3091 14.3815 19.2115 14.1828L20.96 13.3183C21.0577 13.543 21.1521 13.7775 21.2433 14.0217C21.3377 14.2659 21.4207 14.5101 21.4924 14.7543C21.564 14.9985 21.621 15.2394 21.6633 15.4771C21.7089 15.7148 21.7317 15.9379 21.7317 16.1463C21.7317 16.5728 21.6536 16.9391 21.4973 17.2452C21.341 17.548 21.1277 17.7971 20.8575 17.9925C20.5872 18.1878 20.2681 18.3311 19.9002 18.4223C19.5355 18.5167 19.1431 18.5639 18.7231 18.5639H17.6584L17.6584 16.6297Z"
		fill="currentColor"/>
	<path
		d="M12.5636 20.1235C12.9641 20.0388 13.3353 19.9395 13.6772 19.8256C14.0191 19.7116 14.3251 19.5879 14.5954 19.4544C14.8689 19.3209 15.1017 19.1792 15.2938 19.0294C15.4891 18.8797 15.6389 18.7266 15.7431 18.5703C15.6943 18.5703 15.6406 18.5688 15.5819 18.5658C15.5234 18.5658 15.4647 18.5643 15.4061 18.5612C15.3507 18.5582 15.297 18.555 15.2449 18.5515C15.1961 18.5515 15.1554 18.55 15.1228 18.547C14.7744 18.5177 14.4586 18.4509 14.1753 18.3467C13.892 18.2425 13.6494 18.0993 13.4476 17.9169C13.2457 17.7313 13.0894 17.5066 12.9787 17.2429C12.868 16.9792 12.8126 16.6747 12.8126 16.3296C12.8126 16.1179 12.8387 15.8998 12.8908 15.6751C12.9461 15.4504 13.0227 15.2306 13.1203 15.0157C13.218 14.8008 13.3336 14.599 13.4671 14.4101C13.6038 14.2212 13.7536 14.0552 13.9164 13.9119C14.0792 13.7687 14.2518 13.6563 14.4341 13.5749C14.6197 13.4903 14.8102 13.4479 15.0056 13.4479C15.24 13.4479 15.4614 13.4919 15.6698 13.5798C15.8782 13.6677 16.0703 13.7882 16.2461 13.9412C16.4252 14.091 16.5864 14.2701 16.7297 14.4785C16.8762 14.6836 17.0048 14.905 17.1155 15.1427C17.2262 15.3772 17.319 15.623 17.3939 15.8802C17.4688 16.1342 17.5258 16.3865 17.5649 16.6373H17.8579V18.5714H17.4525C17.3158 19.037 17.1041 19.457 16.8176 19.8315C16.531 20.2059 16.1924 20.5348 15.8017 20.818C15.411 21.1046 14.9779 21.3455 14.5025 21.5409C14.0271 21.7363 13.5322 21.8893 13.0177 22L12.5636 20.1235ZM14.9715 15.2931C14.877 15.2931 14.7891 15.324 14.7077 15.3859C14.6263 15.4478 14.5547 15.5259 14.4928 15.6203C14.4342 15.7115 14.387 15.8108 14.3512 15.9183C14.3186 16.0225 14.3023 16.1201 14.3023 16.2113C14.3023 16.2732 14.33 16.3269 14.3854 16.3725C14.444 16.4181 14.5205 16.4572 14.6149 16.4897C14.7094 16.519 14.8168 16.5434 14.9373 16.5629C15.0578 16.5825 15.1799 16.5971 15.3036 16.6069C15.4306 16.6166 15.5527 16.6232 15.6699 16.6264C15.7904 16.6295 15.8978 16.631 15.9923 16.631C15.976 16.4812 15.9386 16.3266 15.8799 16.167C15.8246 16.0075 15.7513 15.8642 15.6601 15.7372C15.5722 15.607 15.4697 15.5011 15.3524 15.4197C15.2352 15.3351 15.1082 15.2931 14.9715 15.2931Z"
		fill="currentColor"/>
	<path
		d="M17.7658 11.2437L16.8477 12.1619L15.9001 11.2192L16.8378 10.2766L17.7658 11.2046L18.684 10.2864L19.6316 11.2291L18.6938 12.1717L17.7658 11.2437Z"
		fill="currentColor"/>
	<path
		d="M10.4892 19.4503C10.3753 19.4959 10.2418 19.5171 10.0887 19.5138C9.93894 19.5138 9.77939 19.4959 9.61008 19.4601C9.44402 19.4243 9.27308 19.3754 9.09724 19.3136C8.92467 19.255 8.75536 19.1899 8.5893 19.1182C8.4265 19.0466 8.27346 18.975 8.13019 18.9033C7.99018 18.8284 7.8697 18.7617 7.76877 18.7031C7.67434 18.8366 7.56364 18.9538 7.43665 19.0547C7.30966 19.1589 7.17128 19.2452 7.0215 19.3136C6.87172 19.382 6.71054 19.4341 6.53797 19.4699C6.36866 19.5057 6.19446 19.5237 6.01538 19.5237H5.78094V17.5895H6.01538C6.16841 17.5895 6.30191 17.57 6.41587 17.5309C6.52983 17.4919 6.62914 17.4365 6.7138 17.3649C6.80172 17.29 6.87986 17.2004 6.94824 17.0962C7.01662 16.992 7.08174 16.8748 7.14361 16.7446C7.21524 16.5981 7.29176 16.4434 7.37316 16.2806C7.45781 16.1145 7.55061 15.9517 7.65155 15.7922C7.75574 15.6294 7.86808 15.4763 7.98855 15.3331C8.10903 15.1866 8.2409 15.0579 8.38417 14.9472C8.53069 14.8365 8.69024 14.7486 8.86281 14.6835C9.03538 14.6184 9.22261 14.5858 9.42448 14.5858C9.7045 14.5858 9.95848 14.6461 10.1864 14.7665C10.4176 14.8837 10.6195 15.0417 10.792 15.2403C10.9679 15.4389 11.1144 15.6685 11.2316 15.9289C11.3488 16.1862 11.4351 16.4548 11.4905 16.7348C11.5458 17.0148 11.5686 17.2965 11.5588 17.5798C11.549 17.863 11.5034 18.1268 11.422 18.371C11.3406 18.6152 11.2218 18.8334 11.0655 19.0255C10.9125 19.2143 10.7204 19.3559 10.4892 19.4503ZM9.38053 16.3293C9.30565 16.3293 9.23238 16.3603 9.16075 16.4221C9.09237 16.4807 9.02562 16.5556 8.9605 16.6468C8.89538 16.7347 8.83514 16.8324 8.77979 16.9398C8.72441 17.044 8.6772 17.1417 8.63815 17.2329C8.70978 17.2817 8.79932 17.3338 8.90678 17.3892C9.01422 17.4446 9.13307 17.4983 9.26332 17.5504C9.39356 17.5992 9.53194 17.6415 9.67847 17.6773C9.82499 17.7131 9.97477 17.7343 10.1278 17.7408C10.1701 17.5976 10.1799 17.4445 10.1571 17.2817C10.1376 17.1157 10.092 16.9626 10.0203 16.8226C9.95197 16.6794 9.86242 16.5621 9.75171 16.471C9.64101 16.3766 9.51729 16.3293 9.38053 16.3293Z"
		fill="currentColor"/>
	<path
		d="M5.84018 19.523C5.39736 19.523 5.02128 19.4627 4.71194 19.3423C4.40587 19.225 4.15516 19.0622 3.95979 18.8538C3.76768 18.6422 3.62767 18.3947 3.53976 18.1115C3.45184 17.8249 3.40788 17.514 3.40788 17.1785C3.40788 16.739 3.41113 16.2978 3.41762 15.855C3.42411 15.4121 3.42411 14.9677 3.41762 14.5216C3.41113 14.0722 3.39323 13.6213 3.36394 13.1687C3.33786 12.7129 3.28902 12.2521 3.21742 11.7865L5.04893 11.2298C5.13359 11.6596 5.1922 12.1056 5.22475 12.568C5.25733 13.0271 5.27522 13.4911 5.27843 13.96C5.28492 14.4256 5.28168 14.8879 5.2687 15.347C5.25893 15.8062 5.25405 16.2473 5.25405 16.6706C5.25405 16.8171 5.25405 16.9506 5.25405 17.0711C5.25708 17.1883 5.27498 17.2876 5.30773 17.3691C5.34351 17.4472 5.40212 17.5058 5.48356 17.5449C5.56496 17.5839 5.68543 17.5986 5.84498 17.5888H5.97685V19.523L5.84018 19.523Z"
		fill="currentColor"/>
	<path
		d="M6.93653 10.2442C6.34719 10.2442 5.80994 10.1677 5.3248 10.0147C4.84291 9.86492 4.42939 9.63862 4.08425 9.33581C3.73912 9.03626 3.47212 8.66182 3.28327 8.21249C3.09442 7.76315 3 7.24056 3 6.64471C3 6.10747 3.08791 5.56371 3.26373 5.01345C3.44282 4.46318 3.70655 3.90477 4.05495 3.33822L5.47132 4.3541C5.39643 4.47458 5.31503 4.62598 5.22712 4.80832C5.1392 4.9874 5.0578 5.18276 4.98291 5.3944C4.90802 5.60604 4.84453 5.8242 4.79244 6.04886C4.74361 6.27027 4.7192 6.48191 4.7192 6.68378C4.7192 6.91496 4.7778 7.12497 4.89502 7.31382C5.01224 7.50267 5.16527 7.6671 5.35412 7.80711C5.54623 7.94712 5.76275 8.05782 6.0037 8.13922C6.2479 8.22388 6.49535 8.27435 6.74606 8.29063C7.05213 8.29063 7.3468 8.24342 7.63008 8.14899C7.91335 8.05782 8.16406 7.93247 8.38221 7.77293C8.60362 7.61663 8.7827 7.43267 8.91946 7.22103C9.05621 7.00938 9.13273 6.78309 9.14901 6.54214C9.13924 6.34353 9.10017 6.13189 9.03179 5.90722C8.96667 5.68256 8.88853 5.45789 8.79736 5.23323C8.70944 5.00856 8.61339 4.78878 8.5092 4.57388C8.40827 4.35573 8.31709 4.15549 8.23569 3.97315L9.85231 3.07449C9.89792 3.16891 9.9549 3.29427 10.0233 3.45055C10.0916 3.60684 10.1633 3.78267 10.2381 3.97804C10.313 4.17339 10.3879 4.38178 10.4628 4.60318C10.5377 4.8246 10.6045 5.04764 10.6631 5.2723C10.7249 5.49697 10.7738 5.71675 10.8096 5.93164C10.8486 6.14654 10.8682 6.34516 10.8682 6.5275C10.8682 6.83356 10.834 7.138 10.7656 7.4408C10.6972 7.74362 10.5914 8.03178 10.4481 8.30528C10.3081 8.58205 10.1307 8.83764 9.91579 9.07207C9.70089 9.30976 9.44692 9.51489 9.15388 9.68746C8.86409 9.86329 8.5336 10 8.16242 10.0977C7.79449 10.1954 7.38586 10.2442 6.93653 10.2442ZM6.88767 4.16851L5.80342 3.08425L6.88767 2L7.97193 3.08425L6.88767 4.16851Z"
		fill="currentColor"/>
</svg>
