	<svg width="32" height="32" viewBox="0 0 32 32" fill="none" xmlns="http://www.w3.org/2000/svg">
<path opacity="0.4" d="M18.3343 12.9374V10.2442C17.8056 10.2442 17.3672 9.81836 17.3672 9.30478V6.09808C17.3672 5.67094 17.019 5.33398 16.5806 5.33398H7.7218C4.9365 5.33398 2.66699 7.53734 2.66699 10.2442V13.4873C2.66699 13.739 2.77015 13.977 2.95068 14.1524C3.13121 14.3265 3.37621 14.4267 3.63411 14.4267C4.61412 14.4267 5.36203 15.1032 5.36203 15.9925C5.36203 16.9207 4.60123 17.6597 3.64701 17.671C3.11831 17.671 2.66699 18.0343 2.66699 18.5604V21.7683C2.66699 24.474 4.9365 26.6661 7.7089 26.6661H16.5806C17.019 26.6661 17.3672 26.3266 17.3672 25.902V23.1951C17.3672 22.6702 17.8056 22.2556 18.3343 22.2556V19.8268C17.8056 19.8268 17.3672 19.3996 17.3672 18.8873V13.8768C17.3672 13.3633 17.8056 12.9374 18.3343 12.9374Z" fill="currentColor"/>
<path d="M26.6383 15.993C26.6383 16.92 27.412 17.659 28.3533 17.6715C28.882 17.6715 29.3333 18.0348 29.3333 18.5484V21.7676C29.3333 24.4745 27.0767 26.6666 24.2914 26.6666H20.0877C19.6622 26.6666 19.3011 26.3271 19.3011 25.9012V23.1956C19.3011 22.6695 18.8756 22.2561 18.334 22.2561V19.8273C18.8756 19.8273 19.3011 19.4001 19.3011 18.8878V13.8774C19.3011 13.3625 18.8756 12.9379 18.334 12.9379V10.2435C18.8756 10.2435 19.3011 9.81762 19.3011 9.30405V6.0986C19.3011 5.67146 19.6622 5.33325 20.0877 5.33325H24.2914C27.0767 5.33325 29.3333 7.52533 29.3333 10.231V13.3876C29.3333 13.6381 29.2302 13.8774 29.0497 14.0515C28.8691 14.2268 28.6241 14.327 28.3662 14.327C27.412 14.327 26.6383 15.0799 26.6383 15.993Z" fill="currentColor"/>
</svg>
