<svg width="36" height="36" viewBox="0 0 36 36" fill="none" xmlns="http://www.w3.org/2000/svg">
<path opacity="0.4" d="M29.465 14.2329C29.465 14.3349 28.6655 24.446 28.2089 28.7014C27.923 31.3128 26.2395 32.8967 23.7143 32.9417C21.774 32.9852 19.8746 33.0002 18.0059 33.0002C16.0218 33.0002 14.0816 32.9852 12.1983 32.9417C9.75764 32.8832 8.07269 31.2678 7.80135 28.7014C7.33161 24.431 6.54676 14.3349 6.53217 14.2329C6.51758 13.9254 6.61678 13.6329 6.8181 13.3959C7.0165 13.1769 7.30243 13.0449 7.60295 13.0449H28.4088C28.7078 13.0449 28.9792 13.1769 29.1936 13.3959C29.3935 13.6329 29.4941 13.9254 29.465 14.2329Z" fill="currentColor"/>
<path d="M31.5 8.96529C31.5 8.34881 31.0142 7.86583 30.4307 7.86583H26.0571C25.1672 7.86583 24.394 7.23285 24.1956 6.34038L23.9506 5.24692C23.6077 3.92547 22.4246 3 21.0971 3H14.9044C13.5622 3 12.3908 3.92547 12.0349 5.31892L11.8058 6.34188C11.606 7.23285 10.8328 7.86583 9.94435 7.86583H5.57078C4.98579 7.86583 4.5 8.34881 4.5 8.96529V9.53527C4.5 10.1367 4.98579 10.6347 5.57078 10.6347H30.4307C31.0142 10.6347 31.5 10.1367 31.5 9.53527V8.96529Z" fill="currentColor"/>
</svg>
