<svg width="24" height="24" viewBox="0 0 24 24" fill="none" xmlns="http://www.w3.org/2000/svg">
<path fill-rule="evenodd" clip-rule="evenodd" d="M19.0048 4.90685C18.0867 3.98268 16.9943 3.24988 15.7909 2.75091C14.5876 2.25194 13.2972 1.99672 11.9945 2.00003C6.5319 2.00003 2.08501 6.44582 2.0828 11.9106C2.0828 13.6571 2.53875 15.3617 3.40539 16.8653L2 22L7.25391 20.6211C8.7072 21.4122 10.3354 21.8271 11.99 21.8278H11.9945C17.4559 21.8278 21.9028 17.382 21.905 11.9172C21.9088 10.615 21.6544 9.32503 21.1566 8.12175C20.6588 6.91847 19.9275 5.82578 19.0048 4.90685V4.90685ZM11.9945 20.1552H11.9912C10.5157 20.1554 9.06737 19.7584 7.79818 19.006L7.49789 18.8271L4.38021 19.6452L5.21152 16.6059L5.01611 16.2946C4.1912 14.9813 3.75451 13.4615 3.75646 11.9106C3.75866 7.36876 7.45373 3.67369 11.9978 3.67369C13.08 3.67128 14.1519 3.88354 15.1515 4.29816C16.1511 4.71279 17.0586 5.32156 17.8213 6.08923C18.5882 6.85324 19.196 7.76166 19.6097 8.762C20.0234 9.76233 20.2347 10.8347 20.2314 11.9172C20.2292 16.4591 16.5341 20.1552 11.9945 20.1552ZM16.5131 13.985C16.2647 13.8602 15.0481 13.2619 14.8207 13.1791C14.5944 13.0963 14.4299 13.0554 14.2643 13.3027C14.0987 13.55 13.624 14.1075 13.4793 14.2731C13.3347 14.4387 13.1901 14.4586 12.9428 14.335C12.6955 14.2113 11.8973 13.9497 10.9512 13.1062C10.2148 12.4493 9.71803 11.639 9.5734 11.3906C9.42878 11.1422 9.55795 11.0086 9.6827 10.885C9.7942 10.7746 9.92999 10.5957 10.0536 10.4511C10.1773 10.3065 10.2181 10.2038 10.3009 10.0382C10.3837 9.87262 10.3429 9.72799 10.28 9.60435C10.2181 9.4796 9.72244 8.26079 9.516 7.76509C9.31617 7.28485 9.11193 7.34889 8.95958 7.34226C8.8018 7.33581 8.64389 7.33286 8.48597 7.33343C8.3604 7.33663 8.23684 7.36574 8.12304 7.41893C8.00925 7.47213 7.90767 7.54826 7.82468 7.64255C7.59725 7.89095 6.95804 8.48931 6.95804 9.70812C6.95804 10.9269 7.84565 12.1049 7.9693 12.2705C8.09295 12.4361 9.71582 14.9366 12.1998 16.0097C12.7915 16.2647 13.253 16.4171 13.6118 16.5319C14.2047 16.7207 14.7445 16.6931 15.1718 16.6302C15.6476 16.5595 16.6368 16.0318 16.8432 15.4533C17.0497 14.8748 17.0497 14.3791 16.9878 14.2753C16.926 14.1716 16.7593 14.1086 16.5131 13.985" fill="currentColor"/>
</svg>
