<?xml version="1.0" standalone="no"?>
<!DOCTYPE svg PUBLIC "-//W3C//DTD SVG 20010904//EN"
 "http://www.w3.org/TR/2001/REC-SVG-20010904/DTD/svg10.dtd">
<svg version="1.0" xmlns="http://www.w3.org/2000/svg"
 width="256.000000pt" height="256.000000pt" viewBox="0 0 256.000000 256.000000"
 preserveAspectRatio="xMidYMid meet">
<metadata>
Created by potrace 1.14, written by Peter Selinger 2001-2017
</metadata>
<g transform="translate(0.000000,256.000000) scale(0.100000,-0.100000)"
fill="#000000" stroke="none">
<path d="M1115 2483 c-139 -16 -265 -55 -395 -122 -252 -129 -402 -282 -557
-566 -87 -161 -118 -255 -148 -445 -14 -92 -14 -341 -1 -400 4 -14 9 -38 12
-54 15 -86 84 -243 146 -335 52 -76 187 -203 287 -270 112 -74 263 -148 381
-186 76 -25 102 -28 245 -31 141 -2 196 2 320 21 45 7 319 102 375 130 83 42
93 78 47 170 -47 94 -221 323 -306 403 -99 91 -268 186 -381 213 -121 29 -213
29 -345 2 -95 -20 -127 -22 -235 -17 -111 6 -127 5 -140 -11 -12 -15 -11 -22
10 -62 27 -51 100 -120 167 -158 115 -64 374 -127 507 -124 71 2 109 8 226 35
53 12 127 10 170 -4 56 -19 145 -107 214 -211 68 -104 80 -135 60 -156 -37
-36 -195 -98 -284 -111 -19 -3 -48 -7 -65 -11 -61 -12 -238 -3 -337 17 -386
79 -674 285 -835 596 -91 177 -118 295 -118 519 1 171 9 226 55 363 86 253
324 513 572 626 352 160 687 154 1002 -18 311 -170 532 -446 621 -778 46 -170
52 -391 15 -526 -62 -225 -231 -476 -364 -538 -80 -37 -109 -22 -195 100 -118
169 -106 348 38 559 133 195 179 347 157 512 -16 122 -89 271 -147 301 -27 13
-29 13 -52 -19 -14 -17 -34 -70 -46 -117 -12 -47 -47 -139 -77 -205 -70 -148
-120 -292 -130 -370 -15 -113 -9 -256 14 -331 28 -90 87 -205 169 -327 104
-155 159 -201 231 -196 93 8 218 113 324 273 168 256 249 531 235 806 -13 243
-65 387 -208 580 -181 244 -466 418 -748 456 -25 3 -55 8 -66 11 -24 6 -377
11 -420 6z"/>
<path d="M1042 1978 c-12 -6 -25 -22 -28 -35 -6 -21 -4 -46 11 -208 13 -132
34 -200 92 -297 63 -105 115 -173 144 -188 26 -14 24 0 -4 30 -31 34 -111 164
-141 230 -25 55 -37 130 -41 250 -1 57 3 74 34 134 33 66 34 69 16 82 -22 16
-51 17 -83 2z"/>
<path d="M1130 1810 c-27 -27 -25 -38 11 -94 25 -37 33 -63 40 -124 8 -83 28
-149 77 -252 16 -36 36 -78 42 -95 7 -17 15 -24 17 -17 3 7 -13 65 -36 130
-46 134 -69 247 -63 312 8 96 6 128 -7 144 -18 22 -57 20 -81 -4z"/>
<path d="M1458 1719 c-10 -5 -18 -7 -18 -4 0 5 -12 -3 -44 -32 -8 -7 -17 -9
-21 -5 -5 4 -5 -1 -2 -11 4 -10 3 -16 -2 -13 -12 8 -36 -23 -50 -63 -15 -45
-14 -47 7 -28 17 15 18 15 19 -6 1 -12 -1 -17 -5 -10 -11 18 -40 -8 -36 -32 2
-11 4 -39 5 -62 2 -36 5 -41 17 -30 13 10 14 9 4 -9 -8 -16 -4 -39 21 -112 18
-56 36 -91 42 -88 7 2 12 -2 12 -10 0 -7 -4 -11 -9 -8 -4 3 -5 -2 -2 -10 3 -9
10 -16 16 -16 5 0 7 -3 4 -8 -2 -4 3 -23 11 -42 9 -19 15 -38 15 -42 -4 -17
17 -7 21 10 4 15 5 15 6 0 0 -9 -3 -20 -9 -23 -14 -9 46 -122 66 -122 14 0 16
9 11 65 -4 35 -12 71 -19 80 -7 9 -8 13 -2 9 7 -4 12 2 12 18 0 16 -5 22 -12
18 -8 -5 -8 -3 0 8 13 15 13 77 0 97 -4 7 -2 12 4 12 6 0 8 5 3 13 -4 6 -6 23
-4 37 3 22 1 23 -16 10 -17 -14 -17 -13 1 8 14 17 16 22 5 22 -11 0 -12 2 -1
9 8 4 13 11 13 15 -1 3 -1 7 0 9 0 1 2 16 4 32 6 52 13 83 25 105 6 12 9 29 5
37 -3 9 0 20 6 24 10 6 14 38 10 95 -3 49 -68 80 -113 53z m28 -28 c-13 -12
-18 -13 -28 -2 -11 10 -9 11 6 5 12 -5 17 -4 13 3 -3 5 1 10 9 10 13 0 13 -2
0 -16z m72 -46 c-3 -3 -9 2 -12 12 -6 14 -5 15 5 6 7 -7 10 -15 7 -18z m-56 0
c15 1 25 -1 23 -5 -2 -4 -17 -6 -32 -5 -15 1 -31 -3 -35 -9 -4 -6 -6 -1 -5 11
1 14 5 19 12 14 5 -4 22 -7 37 -6z m-95 -21 c-3 -3 -12 -4 -19 -1 -8 3 -5 6 6
6 11 1 17 -2 13 -5z m-40 -31 c0 -9 -4 -10 -14 -2 -7 6 -13 12 -13 14 0 1 6 2
13 2 8 0 14 -6 14 -14z m97 1 c3 -9 2 -12 -5 -9 -5 4 -18 1 -27 -6 -13 -11
-12 -8 2 9 23 26 22 26 30 6z m62 -6 l19 -23 -22 19 c-16 13 -23 15 -23 6 0
-7 -3 -11 -6 -7 -5 5 3 27 10 27 2 0 11 -10 22 -22z m44 18 c0 -2 -7 -7 -16
-10 -8 -3 -12 -2 -9 4 6 10 25 14 25 6z m-153 -62 c-3 -3 -12 -4 -19 -1 -8 3
-5 6 6 6 11 1 17 -2 13 -5z m-29 -29 c-3 -3 -9 2 -12 12 -6 14 -5 15 5 6 7 -7
10 -15 7 -18z m105 -22 c-4 -10 -9 -11 -19 -2 -18 15 -18 15 5 15 11 0 17 -5
14 -13z m32 8 c3 -5 2 -12 -3 -15 -5 -3 -9 1 -9 9 0 17 3 19 12 6z m-145 -16
c-6 -8 -8 -20 -4 -27 5 -10 4 -10 -6 -1 -11 10 -11 15 0 28 7 8 15 15 17 15 3
0 0 -7 -7 -15z m55 -44 c-3 -2 -16 -6 -28 -8 -15 -2 -18 0 -9 5 14 9 45 12 37
3z m50 -25 c-1 -49 -10 -53 -11 -5 -1 21 2 39 6 39 3 0 6 -15 5 -34z m-97 -21
c-3 -3 -9 2 -12 12 -6 14 -5 15 5 6 7 -7 10 -15 7 -18z m35 10 c-3 -9 -8 -14
-10 -11 -3 3 -2 9 2 15 9 16 15 13 8 -4z m32 -5 c-3 -5 -12 -10 -18 -10 -7 0
-6 4 3 10 19 12 23 12 15 0z m-70 -30 c-3 -5 -12 -10 -18 -10 -7 0 -6 4 3 10
19 12 23 12 15 0z m32 -12 c-3 -8 -6 -5 -6 6 -1 11 2 17 5 13 3 -3 4 -12 1
-19z m35 15 c-6 -2 -10 -8 -7 -13 3 -4 -3 -14 -12 -21 -15 -12 -16 -12 -8 1 6
8 10 18 11 23 1 4 2 9 3 12 0 3 7 5 14 4 9 0 9 -2 -1 -6z m-85 -43 c-1 -21
-10 -18 -13 5 -1 8 2 15 6 15 5 0 8 -9 7 -20z m45 -42 c-2 -10 -6 -18 -7 -18
-1 0 -5 8 -7 18 -3 11 0 19 7 19 7 0 10 -8 7 -19z m43 12 c3 -6 -1 -7 -9 -4
-18 7 -21 14 -7 14 6 0 13 -4 16 -10z m36 -17 c13 -16 12 -17 -3 -4 -10 7 -18
15 -18 17 0 8 8 3 21 -13z m-49 -11 c3 -11 0 -19 -7 -19 -7 0 -10 8 -7 19 2
10 6 18 7 18 1 0 5 -8 7 -18z m-37 -22 c-3 -5 -12 -10 -18 -10 -7 0 -6 4 3 10
19 12 23 12 15 0z m92 -12 c-3 -8 -6 -5 -6 6 -1 11 2 17 5 13 3 -3 4 -12 1
-19z m-10 -34 c-3 -3 -11 -6 -19 -8 -7 -1 -20 -6 -28 -11 -12 -7 -13 -6 -3 6
6 8 22 15 34 16 11 1 19 0 16 -3z m18 -52 c-17 -15 -18 -15 -6 0 7 9 9 23 5
30 -6 10 -4 11 7 0 11 -10 10 -15 -6 -30z m-41 -30 c3 -5 -1 -9 -9 -9 -8 0
-12 4 -9 9 3 4 7 8 9 8 2 0 6 -4 9 -8z m41 -1 c3 -5 2 -12 -3 -15 -5 -3 -9 1
-9 9 0 17 3 19 12 6z m5 -79 c0 -4 -9 -8 -20 -9 -11 -1 -20 2 -20 5 0 4 9 8
20 9 11 1 20 -2 20 -5z m15 -61 c3 -5 2 -12 -3 -15 -5 -3 -9 1 -9 9 0 17 3 19
12 6z"/>
<path d="M756 1646 c-46 -45 -12 -96 65 -96 29 0 125 -62 213 -137 22 -18 49
-33 60 -32 19 0 18 2 -8 22 -16 12 -63 56 -105 97 -95 93 -166 156 -186 164
-10 3 -26 -4 -39 -18z"/>
<path d="M870 1362 c-28 -9 -95 -42 -114 -56 -10 -9 -15 -20 -10 -27 4 -7 3
-10 -4 -5 -17 10 -24 -29 -11 -58 14 -30 131 -94 138 -75 2 8 6 8 10 1 3 -6
18 -13 31 -16 90 -20 123 -25 131 -20 5 3 9 0 9 -5 0 -6 10 -11 23 -11 43 0
175 -56 240 -102 15 -11 35 -17 43 -14 8 3 12 1 9 -4 -5 -9 50 -49 88 -63 21
-8 23 15 3 40 -8 10 -27 33 -41 51 -15 17 -32 29 -37 25 -6 -3 -8 -1 -5 4 4 6
-3 21 -14 34 -12 13 -45 56 -74 94 -45 62 -67 84 -135 138 -40 32 -92 58 -106
53 -8 -3 -12 -2 -9 4 3 6 2 10 -4 10 -5 0 -17 3 -27 7 -13 5 -15 3 -9 -8 7
-12 6 -12 -7 -1 -15 12 -84 14 -118 4z"/>
<path d="M1520 930 c0 -13 18 -22 24 -11 3 5 -1 11 -9 15 -8 3 -15 1 -15 -4z"/>
</g>
</svg>
